HIERARCHY
ROOT hip
{
  OFFSET 0 0 0
  CHANNELS 6 Xposition Yposition Zposition Zrotation Yrotation Xrotation
  JOINT abdomen
  {
    OFFSET 0 20.6881 -0.73152
    CHANNELS 3 Zrotation Xrotation Yrotation
    JOINT chest
    {
      OFFSET 0 11.7043 -0.48768
      CHANNELS 3 Zrotation Xrotation Yrotation
      JOINT neck
      {
        OFFSET 0 22.1894 -2.19456
        CHANNELS 3 Zrotation Xrotation Yrotation
        JOINT head
        {
          OFFSET -0.24384 7.07133 1.2192
          CHANNELS 3 Zrotation Xrotation Yrotation
          JOINT leftEye
          {
            OFFSET 4.14528 8.04674 8.04672
            CHANNELS 3 Zrotation Xrotation Yrotation
            End Site
            {
              OFFSET 1 0 0
            }
          }
          JOINT rightEye
          {
            OFFSET -3.6576 8.04674 8.04672
            CHANNELS 3 Zrotation Xrotation Yrotation
            End Site
            {
              OFFSET 1 0 0
            }
          }
        }
      }
      JOINT rCollar
      {
        OFFSET -2.68224 19.2634 -4.8768
        CHANNELS 3 Zrotation Xrotation Yrotation
        JOINT rShldr
        {
          OFFSET -8.77824 -1.95073 1.46304
          CHANNELS 3 Zrotation Xrotation Yrotation
          JOINT rForeArm
          {
            OFFSET -28.1742 -1.7115 0.48768
            CHANNELS 3 Zrotation Xrotation Yrotation
            JOINT rHand
            {
              OFFSET -22.5879 0.773209 7.07136
              CHANNELS 3 Zrotation Xrotation Yrotation
              JOINT rThumb1
              {
                OFFSET -1.2192 -0.487915 3.41376
                CHANNELS 3 Zrotation Xrotation Yrotation
                JOINT rThumb2
                {
                  OFFSET -3.37035 -0.52449 3.41376
                  CHANNELS 3 Zrotation Xrotation Yrotation
                  End Site
                  {
                    OFFSET -1.78271 -1.18214 1.43049
                  }
                }
              }
              JOINT rIndex1
              {
                OFFSET -7.75947 0.938293 5.60832
                CHANNELS 3 Zrotation Xrotation Yrotation
                JOINT rIndex2
                {
                  OFFSET -2.54057 -0.884171 1.56538
                  CHANNELS 3 Zrotation Xrotation Yrotation
                  End Site
                  {
                    OFFSET -1.62519 -0.234802 1.16502
                  }
                }
              }
              JOINT rMid1
              {
                OFFSET -8.24714 1.18213 3.41376
                CHANNELS 3 Zrotation Xrotation Yrotation
                JOINT rMid2
                {
                  OFFSET -3.10165 -0.590103 1.0647
                  CHANNELS 3 Zrotation Xrotation Yrotation
                  End Site
                  {
                    OFFSET -2.48547 -0.328903 0.83742
                  }
                }
              }
              JOINT rRing1
              {
                OFFSET -8.82822 0.546677 1.51678
                CHANNELS 3 Zrotation Xrotation Yrotation
                JOINT rRing2
                {
                  OFFSET -2.60934 -0.819778 -0.0198488
                  CHANNELS 3 Zrotation Xrotation Yrotation
                  End Site
                  {
                    OFFSET -2.33842 -0.294052 0.168128
                  }
                }
              }
              JOINT rPinky1
              {
                OFFSET -8.27202 -0.0477905 -0.4584
                CHANNELS 3 Zrotation Xrotation Yrotation
                JOINT rPinky2
                {
                  OFFSET -1.82734 -0.647385 -0.700984
                  CHANNELS 3 Zrotation Xrotation Yrotation
                  End Site
                  {
                    OFFSET -1.69225 -0.51767 -0.607171
                  }
                }
              }
            }
          }
        }
      }
      JOINT lCollar
      {
        OFFSET 2.68224 19.2634 -4.8768
        CHANNELS 3 Zrotation Xrotation Yrotation
        JOINT lShldr
        {
          OFFSET 8.77824 -1.95073 1.46304
          CHANNELS 3 Zrotation Xrotation Yrotation
          JOINT lForeArm
          {
            OFFSET 28.1742 -1.7115 0.48768
            CHANNELS 3 Zrotation Xrotation Yrotation
            JOINT lHand
            {
              OFFSET 22.5879 0.773209 7.07136
              CHANNELS 3 Zrotation Xrotation Yrotation
              JOINT lThumb1
              {
                OFFSET 1.2192 -0.487915 3.41376
                CHANNELS 3 Zrotation Xrotation Yrotation
                JOINT lThumb2
                {
                  OFFSET 3.37035 -0.52449 3.41376
                  CHANNELS 3 Zrotation Xrotation Yrotation
                  End Site
                  {
                    OFFSET 1.78271 -1.18214 1.43049
                  }
                }
              }
              JOINT lIndex1
              {
                OFFSET 7.75947 0.938293 5.60832
                CHANNELS 3 Zrotation Xrotation Yrotation
                JOINT lIndex2
                {
                  OFFSET 2.54057 -0.884171 1.56538
                  CHANNELS 3 Zrotation Xrotation Yrotation
                  End Site
                  {
                    OFFSET 1.62519 -0.234802 1.16502
                  }
                }
              }
              JOINT lMid1
              {
                OFFSET 8.24714 1.18213 3.41376
                CHANNELS 3 Zrotation Xrotation Yrotation
                JOINT lMid2
                {
                  OFFSET 3.10165 -0.590103 1.0647
                  CHANNELS 3 Zrotation Xrotation Yrotation
                  End Site
                  {
                    OFFSET 2.48547 -0.328903 0.83742
                  }
                }
              }
              JOINT lRing1
              {
                OFFSET 8.82822 0.546677 1.51678
                CHANNELS 3 Zrotation Xrotation Yrotation
                JOINT lRing2
                {
                  OFFSET 2.60934 -0.819778 -0.0198488
                  CHANNELS 3 Zrotation Xrotation Yrotation
                  End Site
                  {
                    OFFSET 2.33842 -0.294052 0.168128
                  }
                }
              }
              JOINT lPinky1
              {
                OFFSET 8.27202 -0.0477905 -0.4584
                CHANNELS 3 Zrotation Xrotation Yrotation
                JOINT lPinky2
                {
                  OFFSET 1.82734 -0.647385 -0.700984
                  CHANNELS 3 Zrotation Xrotation Yrotation
                  End Site
                  {
                    OFFSET 1.69225 -0.51767 -0.607171
                  }
                }
              }
            }
          }
        }
      }
    }
  }
  JOINT rButtock
  {
    OFFSET -8.77824 4.35084 1.2192
    CHANNELS 3 Zrotation Xrotation Yrotation
    JOINT rThigh
    {
      OFFSET 0 -1.70687 -2.19456
      CHANNELS 3 Zrotation Xrotation Yrotation
      JOINT rShin
      {
        OFFSET 0 -36.8199 0.73152
        CHANNELS 3 Zrotation Xrotation Yrotation
        JOINT rFoot
        {
          OFFSET 0.73152 -45.1104 -5.12064
          CHANNELS 3 Zrotation Xrotation Yrotation
          End Site
          {
            OFFSET -1.1221 -3.69964 12.103
          }
        }
      }
    }
  }
  JOINT lButtock
  {
    OFFSET 8.77824 4.35084 1.2192
    CHANNELS 3 Zrotation Xrotation Yrotation
    JOINT lThigh
    {
      OFFSET 0 -1.70687 -2.19456
      CHANNELS 3 Zrotation Xrotation Yrotation
      JOINT lShin
      {
        OFFSET 0 -36.8199 0.73152
        CHANNELS 3 Zrotation Xrotation Yrotation
        JOINT lFoot
        {
          OFFSET -0.73152 -45.1104 -5.12064
          CHANNELS 3 Zrotation Xrotation Yrotation
          End Site
          {
            OFFSET 1.1221 -3.69964 12.103
          }
        }
      }
    }
  }
}
MOTION
Frames:	4
Frame Time:	0.03333
59.283000413755694 65.64849981136096 10.194000053368452 -24.467012405395508 53.26720428466797 -20.599956512451172 11.68529987335205 13.859099388122559 12.988900184631348 0.5350279211997986 -8.412379264831543 4.090819835662842 2.6087400913238525 13.54880142211914 13.819099426269531 -3.352599859237671 -21.121999740600586 26.498699188232422 -0.0 0.0 -0.0 -0.0 0.0 -0.0 2.3885599986610273e-13 -2.2458298241934127e-12 1.422369925833944e-12 98.05249786376953 35.04570388793945 -48.766700744628906 -22.740201950073242 -50.87030029296875 107.05400085449219 -155.18199157714844 -61.254398345947266 -165.15699768066406 4.21119006333015e-09 -1.8526398193330351e-09 1.1425599355519012e-09 6.886209824585876e-09 -3.446410046237247e-09 2.263790044310099e-09 4.211179849278324e-09 -1.8526398193330351e-09 1.1425400625597604e-09 7.730909824371338 5.474879741668701 0.4173140823841095 4.211179849278324e-09 -1.8526398193330351e-09 1.1425499435446795e-09 2.9055399894714355 0.9651829600334167 0.10290199518203735 4.21119006333015e-09 -1.8526398193330351e-09 1.1425499435446795e-09 10.27859878540039 0.73180091381073 0.025912316516041756 4.211179849278324e-09 -1.8526398193330351e-09 1.1425499435446795e-09 2.221669912338257 -0.733487069606781 -0.208919957280159 2.387990250419386e-13 -2.2458298241934127e-12 1.422120017233186e-12 -81.99410247802734 -11.739999771118164 -88.99359893798828 4.985719680786133 -1.610549807548523 -8.679758071899414 54.670196533203125 80.98809051513672 -62.37889862060547 1.0767699620828353e-08 4.2976600056476855e-09 -2.1510397907320566e-09 1.81628987405702e-08 7.017350256433019e-09 -4.392980201828323e-09 1.0767699620828353e-08 4.2976600056476855e-09 -2.1510397907320566e-09 -7.730909824371338 5.474879741668701 -0.4173140823841095 1.0767699620828353e-08 4.2976600056476855e-09 -2.151050004783883e-09 -2.9055399894714355 0.9651829600334167 -0.10290199518203735 1.0767699620828353e-08 4.2976600056476855e-09 -2.151050004783883e-09 -10.27859878540039 0.73180091381073 -0.025912316516041756 1.0767699620828353e-08 4.2976600056476855e-09 -2.151059996791105e-09 -2.221669912338257 -0.733487069606781 0.208919957280159 -2.0321699480147914e-16 0.0 -3.8825099822884138e-19 -1.8118897676467896 -0.08275347948074341 -5.280770778656006 -0.3011309802532196 45.912601470947266 1.7758396863937378 -14.60879898071289 -15.466100692749023 -32.56209945678711 2.0321699480147914e-16 0.0 3.8825099822884138e-19 66.34269714355469 -49.5265998840332 51.61470413208008 2.4551098346710205 71.70550537109375 -2.5513501167297363 -0.983782947063446 -2.529160261154175 -8.565159797668457
59.379800415994055 65.59290207151706 10.32600004914428 -25.1980037689209 53.31670379638672 -20.909992218017578 11.927599906921387 13.751602172851562 13.041897773742676 0.49278196692466736 -8.354680061340332 4.109110355377197 2.6857001781463623 13.647900581359863 14.050700187683105 -3.6509296894073486 -21.017105102539062 26.895797729492188 -0.0 0.0 -0.0 -0.0 0.0 -0.0 3.346149854595304e-13 -3.23914007595294e-12 1.6302498630563211e-12 98.81269836425781 35.62020492553711 -49.10090255737305 -22.896297454833984 -50.702606201171875 106.60798645019531 -152.51199340820312 -65.34191131591797 -162.17300415039062 4.4680095179217005e-09 -1.964609808169371e-09 2.707990054418019e-09 7.183349914896553e-09 -3.5925398211844595e-09 4.908800033120997e-09 4.4680095179217005e-09 -1.964600038206754e-09 2.7079798403661925e-09 7.730909824371338 5.474879741668701 0.4173140823841095 4.4680095179217005e-09 -1.964600038206754e-09 2.707990054418019e-09 2.9055399894714355 0.9651829600334167 0.10290199518203735 4.468019731973527e-09 -1.964600038206754e-09 2.707990054418019e-09 10.27859878540039 0.73180091381073 0.025912316516041756 4.4680095179217005e-09 -1.964600038206754e-09 2.707990054418019e-09 2.221669912338257 -0.733487069606781 -0.208919957280159 3.345499875392899e-13 -3.23914007595294e-12 1.629999846035346e-12 -81.660400390625 -11.477400779724121 -89.10539245605469 5.004489898681641 -1.6182998418807983 -8.713021278381348 53.990501403808594 80.93353271484375 -61.690792083740234 1.1160699919798844e-08 4.765139838269761e-09 -4.464799641112904e-09 1.8684598757090498e-08 7.612360519715367e-09 -8.35588931380471e-09 1.1160699919798844e-08 4.765139838269761e-09 -4.4647898711502876e-09 -7.730909824371338 5.474879741668701 -0.4173140823841095 1.1160699919798844e-08 4.765139838269761e-09 -4.464809855164731e-09 -2.9055399894714355 0.9651829600334167 -0.10290199518203735 1.1160699919798844e-08 4.765139838269761e-09 -4.464799641112904e-09 -10.27859878540039 0.73180091381073 -0.025912316516041756 1.1160699919798844e-08 4.765150052321587e-09 -4.464809855164731e-09 -2.221669912338257 -0.733487069606781 0.208919957280159 -2.0321699480147914e-16 0.0 -3.8825099822884138e-19 -1.683789849281311 -0.03167590871453285 -5.6194891929626465 -0.2959280014038086 45.80509948730469 1.785830020904541 -14.675999641418457 -15.758801460266113 -32.40769958496094 2.0321699480147914e-16 0.0 3.8825099822884138e-19 66.80249786376953 -49.83799743652344 51.82609939575195 2.508169651031494 71.99848937988281 -2.610839366912842 -0.9704418778419495 -2.4582700729370117 -8.541250228881836
59.5140004130335 65.56989799439245 10.404000049073673 -25.636995315551758 53.4574089050293 -21.12003517150879 12.105500221252441 13.61970329284668 13.089999198913574 0.48272502422332764 -8.300230979919434 4.124269962310791 2.70563006401062 13.740398406982422 14.219900131225586 -3.8468194007873535 -21.040203094482422 27.192399978637695 -0.0 0.0 -0.0 -0.0 0.0 -0.0 -9.949180177022047e-16 -1.521449849786749e-12 1.554580032411823e-12 99.55130004882812 36.06700134277344 -49.42349624633789 -23.080400466918945 -50.499000549316406 106.07499694824219 -149.02499389648438 -69.11700439453125 -158.3909912109375 3.2192397636521264e-09 -1.3888000749417984e-09 3.608470189320201e-09 5.058280017067318e-09 -2.5380499923954858e-09 6.322329770824808e-09 3.2192397636521264e-09 -1.3888000749417984e-09 3.608449761216548e-09 7.730909824371338 5.474879741668701 0.4173140823841095 3.2192397636521264e-09 -1.3887899719122743e-09 3.608470189320201e-09 2.9055399894714355 0.9651829600334167 0.10290199518203735 3.2192397636521264e-09 -1.3887899719122743e-09 3.6084599752683744e-09 10.27859878540039 0.73180091381073 0.025912316516041756 3.2192397636521264e-09 -1.3887899719122743e-09 3.608470189320201e-09 2.221669912338257 -0.733487069606781 -0.208919957280159 -1.1412398888459513e-15 -1.5214599328669531e-12 1.554320040730861e-12 -78.85559844970703 -11.351800918579102 -88.86160278320312 5.086410045623779 -1.6519601345062256 -8.85830020904541 41.37199401855469 79.43852233886719 -48.887489318847656 8.594660094729534e-09 2.9412898783220953e-09 -6.7650103297012265e-09 1.4187399699494563e-08 4.589479907224359e-09 -1.2106498914477015e-08 8.594660094729534e-09 2.9412898783220953e-09 -6.7650001156494e-09 -7.730909824371338 5.474879741668701 -0.4173140823841095 8.594660094729534e-09 2.9412898783220953e-09 -6.765019655574633e-09 -2.9055399894714355 0.9651829600334167 -0.10290199518203735 8.594660094729534e-09 2.9412898783220953e-09 -6.765019655574633e-09 -10.27859878540039 0.73180091381073 -0.025912316516041756 8.59466897651373e-09 2.9412898783220953e-09 -6.765019655574633e-09 -2.221669912338257 -0.733487069606781 0.208919957280159 -2.0321699480147914e-16 0.0 -3.8825099822884138e-19 -1.6401097774505615 -0.03732519969344139 -6.043879508972168 -0.29102399945259094 45.70680236816406 1.7960598468780518 -14.738899230957031 -16.08890151977539 -32.20500183105469 2.0321699480147914e-16 0.0 3.8825099822884138e-19 67.12739562988281 -50.236900329589844 51.9453010559082 2.5547900199890137 72.24829864501953 -2.662799835205078 -0.9299207925796509 -2.3230202198028564 -8.417590141296387
59.64870041460475 65.54670267197109 10.450000049117547 -25.505008697509766 53.6626091003418 -20.969989776611328 12.167500495910645 13.623998641967773 13.115399360656738 0.45370596647262573 -8.302321434020996 4.131619930267334 2.710319995880127 13.809300422668457 14.377098083496094 -3.9490396976470947 -21.08119773864746 27.48200225830078 -0.0 0.0 -0.0 -0.0 0.0 -0.0 -3.805209795805682e-14 -7.818630183391295e-13 1.0019199012112345e-12 100.27999877929688 36.432098388671875 -49.75519561767578 -23.2748966217041 -50.278995513916016 105.50299835205078 -144.79701232910156 -72.26752471923828 -153.9149932861328 1.6867798269259993e-09 -7.062719853401234e-10 1.7278398711795262e-09 2.674749977060742e-09 -1.2768199830759386e-09 3.0373596970889594e-09 1.6867798269259993e-09 -7.062709861394012e-10 1.7278298791723046e-09 7.730909824371338 5.474879741668701 0.4173140823841095 1.6867798269259993e-09 -7.062689877379569e-10 1.7278499742090503e-09 2.9055399894714355 0.9651829600334167 0.10290199518203735 1.6867798269259993e-09 -7.062689877379569e-10 1.7278499742090503e-09 10.27859878540039 0.73180091381073 0.025912316516041756 1.6867798269259993e-09 -7.062689877379569e-10 1.7278499742090503e-09 2.221669912338257 -0.733487069606781 -0.208919957280159 -3.8136198165323806e-14 -7.818699572330334e-13 1.0017199743306282e-12 -77.2908935546875 -11.216900825500488 -88.77629089355469 5.11578893661499 -1.6640199422836304 -8.91050910949707 35.885398864746094 78.416015625 -43.296695709228516 4.633719630220412e-09 1.4801000425279653e-09 -3.294430062084075e-09 7.68130004047407e-09 2.341919769222045e-09 -5.9163896004577055e-09 4.633719630220412e-09 1.4801000425279653e-09 -3.2944198480322484e-09 -7.730909824371338 5.474879741668701 -0.4173140823841095 4.6337298442722386e-09 1.4801000425279653e-09 -3.2944398320466917e-09 -2.9055399894714355 0.9651829600334167 -0.10290199518203735 4.633719630220412e-09 1.4801000425279653e-09 -3.2944398320466917e-09 -10.27859878540039 0.73180091381073 -0.025912316516041756 4.6337298442722386e-09 1.4801000425279653e-09 -3.2944498240539133e-09 -2.221669912338257 -0.733487069606781 0.208919957280159 -2.0321699480147914e-16 0.0 -3.8825099822884138e-19 -1.701279878616333 0.00694330083206296 -6.359569549560547 -0.2875960171222687 45.638099670410156 1.803420066833496 -14.803401947021484 -16.395597457885742 -32.02259826660156 2.0321699480147914e-16 0.0 3.8825099822884138e-19 67.07669830322266 -50.57060241699219 51.790496826171875 2.5848100185394287 72.39520263671875 -2.6943295001983643 -0.8829928636550903 -2.3332698345184326 -8.126969337463379
